<svg width="1440" height="100" viewBox="0 0 1440 100" fill="none" xmlns="http://www.w3.org/2000/svg">
<rect x="181.463" y="-40.4595" width="115.347" height="115.347" rx="5" transform="rotate(15 181.463 -40.4595)" fill="#7AB3A2"/>
<rect x="82.9127" y="-8.71985" width="94.3433" height="94.3433" rx="5" transform="rotate(-38.2994 82.9127 -8.71985)" fill="#7AB3A2"/>
<rect x="-39.8437" y="-16" width="70" height="70" rx="5" transform="rotate(6.69125 -39.8437 -16)" fill="#7AB3A2"/>
<rect x="233.156" y="-22" width="70" height="70" rx="5" transform="rotate(6.69125 233.156 -22)" fill="#7AB3A2"/>
<rect x="836.183" y="-12.9857" width="98.3328" height="98.3328" rx="5" transform="rotate(6.69125 836.183 -12.9857)" fill="#7AB3A2"/>
<rect x="1243.16" y="-12" width="70" height="70" rx="5" transform="rotate(6.69125 1243.16 -12)" fill="#7AB3A2"/>
<rect x="-2.83127" y="10.6757" width="100.367" height="100.367" rx="5" transform="rotate(-25.795 -2.83127 10.6757)" fill="#7AB3A2"/>
<rect x="273.577" y="-12.8971" width="87.0577" height="87.0577" rx="5" transform="rotate(-25.795 273.577 -12.8971)" fill="#7AB3A2"/>
<rect x="357.324" y="-31.938" width="108.068" height="108.068" rx="5" transform="rotate(14.0274 357.324 -31.938)" fill="#7AB3A2"/>
<rect x="431.677" y="5.66528" width="97.405" height="97.405" rx="5" transform="rotate(-13.4554 431.677 5.66528)" fill="#7AB3A2"/>
<rect x="518.964" y="-0.0124512" width="90.901" height="90.901" rx="5" transform="rotate(-26.8299 518.964 -0.0124512)" fill="#7AB3A2"/>
<rect x="613.442" y="-15.5944" width="100.769" height="100.769" rx="5" transform="rotate(9.46728 613.442 -15.5944)" fill="#7AB3A2"/>
<rect x="676.659" y="-3.92896" width="93.9411" height="93.9411" rx="5" transform="rotate(-15 676.659 -3.92896)" fill="#7AB3A2"/>
<rect x="778.567" y="-21.7799" width="88.7619" height="98.2617" rx="5" transform="rotate(19.5211 778.567 -21.7799)" fill="#7AB3A2"/>
<rect x="814.229" y="-19.5435" width="96.3915" height="96.3915" rx="5" transform="rotate(1.05378 814.229 -19.5435)" fill="#7AB3A2"/>
<rect x="907.992" y="-11.33" width="114.081" height="114.081" rx="5" transform="rotate(-8.40221 907.992 -11.33)" fill="#7AB3A2"/>
<rect x="1019.55" y="-9" width="84.0745" height="84.0745" rx="5" transform="rotate(2.41797 1019.55 -9)" fill="#7AB3A2"/>
<rect x="1087.73" y="-0.375366" width="103.642" height="103.642" rx="5" transform="rotate(-10.3522 1087.73 -0.375366)" fill="#7AB3A2"/>
<rect x="1199.58" y="-31" width="106.572" height="106.572" rx="5" transform="rotate(15 1199.58 -31)" fill="#7AB3A2"/>
<rect x="1385.44" y="-32.6399" width="91.9624" height="91.9624" rx="5" transform="rotate(7.69234 1385.44 -32.6399)" fill="#7AB3A2"/>
<rect x="1291.23" y="4.65552" width="98.8698" height="98.8698" rx="5" transform="rotate(-10.8657 1291.23 4.65552)" fill="#7AB3A2"/>
</svg>
